<svg width="145" height="36" viewBox="0 0 145 36" fill="none" xmlns="http://www.w3.org/2000/svg">
<path d="M34.7341 30H32.2381L41.9341 8.56H45.1021L54.8301 30H52.2701L44.7501 13.52L43.5661 10.736H43.3741L42.2221 13.52L34.7341 30ZM50.2541 23.696H36.6221V21.648H50.2541V23.696ZM64.5284 30.32C63.035 30.32 61.787 30.0107 60.7844 29.392C59.803 28.752 59.0564 27.9093 58.5444 26.864C58.0537 25.8187 57.8084 24.6773 57.8084 23.44V14.192H60.0804V23.088C60.0804 24.7093 60.4964 25.9787 61.3284 26.896C62.1604 27.8133 63.4937 28.272 65.3284 28.272C67.2697 28.272 68.731 27.7173 69.7124 26.608C70.715 25.4773 71.2164 23.8987 71.2164 21.872L71.8244 21.84V25.072H71.2804C71.1097 25.968 70.7364 26.8107 70.1604 27.6C69.6057 28.3893 68.859 29.04 67.9204 29.552C66.9817 30.064 65.851 30.32 64.5284 30.32ZM73.4884 30H71.4404V25.008L71.2164 24.848V14.192H73.4884V30ZM80.5826 30H78.3106V14.192H80.3586V18.64L80.5826 18.8V30ZM80.5826 21.424H79.9426V18.512H80.5186C80.668 17.6587 80.9666 16.88 81.4146 16.176C81.884 15.472 82.5026 14.9173 83.2706 14.512C84.0386 14.0853 84.9773 13.872 86.0866 13.872C87.3026 13.872 88.2946 14.1387 89.0626 14.672C89.852 15.2053 90.428 15.8987 90.7906 16.752C91.1533 17.6053 91.3346 18.5227 91.3346 19.504V21.072H89.0626V19.856C89.0626 18.512 88.764 17.5093 88.1666 16.848C87.5693 16.1867 86.5773 15.856 85.1906 15.856C83.5906 15.856 82.4173 16.336 81.6706 17.296C80.9453 18.256 80.5826 19.632 80.5826 21.424ZM108.951 30H106.903V25.68L106.743 25.552V20.208C106.743 18.672 106.38 17.5733 105.655 16.912C104.93 16.2507 103.692 15.92 101.943 15.92C100.258 15.92 98.9669 16.24 98.0709 16.88C97.1962 17.4987 96.7589 18.512 96.7589 19.92V20.048H94.4869V19.92C94.4869 18.7893 94.7855 17.776 95.3829 16.88C95.9802 15.9627 96.8442 15.2373 97.9749 14.704C99.1055 14.1493 100.482 13.872 102.103 13.872C103.703 13.872 105.004 14.1493 106.007 14.704C107.031 15.2587 107.778 16.0053 108.247 16.944C108.716 17.8827 108.951 18.9387 108.951 20.112V30ZM99.3509 30.32C97.7935 30.32 96.5349 29.968 95.5749 29.264C94.6149 28.5387 94.1349 27.5467 94.1349 26.288C94.1349 25.4133 94.3482 24.7093 94.7749 24.176C95.2229 23.6213 95.8309 23.1947 96.5989 22.896C97.3669 22.5973 98.2415 22.384 99.2229 22.256L107.063 21.392V22.896L99.9269 23.696C98.7322 23.8027 97.8469 24.0267 97.2709 24.368C96.6949 24.7093 96.4069 25.296 96.4069 26.128C96.4069 26.9173 96.6842 27.5253 97.2389 27.952C97.7935 28.3573 98.6682 28.56 99.8629 28.56C101.164 28.56 102.327 28.368 103.351 27.984C104.375 27.5787 105.196 26.9707 105.815 26.16C106.434 25.3493 106.743 24.3147 106.743 23.056L107.191 23.216V25.744H106.743C106.274 27.1947 105.388 28.3253 104.087 29.136C102.786 29.9253 101.207 30.32 99.3509 30.32ZM115.958 30H113.686V8.56H115.958V30ZM123.051 30H120.779V14.192H123.051V30ZM123.051 12.176H120.779V8.56H123.051V12.176ZM134.817 30.32C132.406 30.32 130.518 29.8507 129.153 28.912C127.809 27.952 127.137 26.5547 127.137 24.72V24.656H129.409V24.848C129.409 26.1707 129.825 27.0987 130.657 27.632C131.51 28.1653 132.908 28.432 134.849 28.432C136.62 28.432 137.857 28.2187 138.561 27.792C139.265 27.344 139.617 26.672 139.617 25.776C139.617 24.944 139.34 24.3573 138.785 24.016C138.252 23.6533 137.324 23.3653 136.001 23.152L131.777 22.544C130.326 22.352 129.174 21.9467 128.321 21.328C127.489 20.7093 127.073 19.7387 127.073 18.416C127.073 17.4773 127.35 16.6773 127.905 16.016C128.481 15.3333 129.292 14.8107 130.337 14.448C131.382 14.064 132.63 13.872 134.081 13.872C135.596 13.872 136.908 14.0853 138.017 14.512C139.148 14.9173 140.022 15.536 140.641 16.368C141.26 17.2 141.569 18.2453 141.569 19.504V19.568H139.297V19.408C139.297 18.5973 139.137 17.9253 138.817 17.392C138.497 16.8587 137.953 16.4533 137.185 16.176C136.417 15.8987 135.361 15.76 134.017 15.76C132.353 15.76 131.148 15.9733 130.401 16.4C129.676 16.8267 129.313 17.5093 129.313 18.448C129.313 19.2587 129.558 19.8453 130.049 20.208C130.561 20.5493 131.468 20.8267 132.769 21.04L136.641 21.584C138.326 21.8187 139.617 22.256 140.513 22.896C141.409 23.536 141.857 24.496 141.857 25.776C141.857 26.7573 141.548 27.5893 140.929 28.272C140.332 28.9547 139.5 29.4667 138.433 29.808C137.388 30.1493 136.182 30.32 134.817 30.32Z" fill="white"/>
<path d="M0 27.7939C3.58871 27.7939 6.4979 24.8847 6.4979 21.296C6.4979 17.7073 3.58871 14.7981 0 14.7981V19.3466C1.0766 19.3466 1.94936 20.2194 1.94936 21.296C1.94936 22.3726 1.0766 23.2454 0 23.2454V27.7939Z" fill="#1EE19B" fill-opacity="0.7"/>
<path d="M21.6598 16.9639C20.5494 16.6122 19.367 16.4224 18.1401 16.4224C11.7103 16.4224 6.49805 21.6348 6.49805 28.0644C6.49805 28.7098 6.55056 29.3429 6.65153 29.9597H13.8851C13.6269 29.3808 13.4833 28.7394 13.4833 28.0644C13.4833 25.4926 15.5682 23.4076 18.1401 23.4076C19.5458 23.4076 20.806 24.0304 21.6598 25.0151V16.9639Z" fill="#70DEB7"/>
<path d="M1.14258 8.30005C1.6813 13.1734 5.81299 16.964 10.83 16.964C15.8469 16.964 19.9786 13.1734 20.5173 8.30005H13.5469C13.1165 9.37882 12.0622 10.1411 10.83 10.1411C9.59763 10.1411 8.54339 9.37882 8.113 8.30005H1.14258Z" fill="#1EE19B"/>
</svg>
