<svg width="94" height="25" viewBox="0 0 94 25" fill="none" xmlns="http://www.w3.org/2000/svg">
<path d="M33.6699 8.5613C34.3726 9.264 34.3726 10.4033 33.6698 11.106L20.9029 23.873C20.2002 24.5757 19.0609 24.5757 18.3582 23.873L10.3239 15.8387C9.6212 15.136 9.6212 13.9967 10.3239 13.294L23.0909 0.527025C23.7936 -0.175676 24.9329 -0.175674 25.6356 0.527026L33.6699 8.5613Z" fill="#4A6DFF"/>
<path d="M23.873 8.5613C24.5757 9.264 24.5757 10.4033 23.873 11.106L11.106 23.873C10.4033 24.5757 9.264 24.5757 8.5613 23.873L0.527025 15.8387C-0.175676 15.136 -0.175675 13.9967 0.527026 13.294L13.294 0.527025C13.9967 -0.175676 15.136 -0.175674 15.8387 0.527026L23.873 8.5613Z" fill="#2EB9FF"/>
<path d="M44.1464 17V6.56522H47.9677C48.7082 6.56522 49.3213 6.6875 49.8071 6.93206C50.2928 7.17323 50.6563 7.50102 50.8974 7.91542C51.1386 8.32643 51.2592 8.79008 51.2592 9.30638C51.2592 9.74117 51.1793 10.108 51.0197 10.4069C50.8601 10.7024 50.6461 10.9402 50.3777 11.1202C50.1128 11.2969 49.8207 11.426 49.5014 11.5075V11.6094C49.8478 11.6264 50.1858 11.7385 50.5153 11.9457C50.8482 12.1495 51.1233 12.4399 51.3407 12.8169C51.5581 13.194 51.6668 13.6525 51.6668 14.1926C51.6668 14.7259 51.5411 15.2048 51.2897 15.6294C51.0418 16.0506 50.6579 16.3852 50.1382 16.6332C49.6185 16.8777 48.9545 17 48.1461 17H44.1464ZM45.7208 15.6498H47.9932C48.7473 15.6498 49.2874 15.5037 49.6135 15.2116C49.9395 14.9195 50.1026 14.5543 50.1026 14.1162C50.1026 13.7867 50.0194 13.4844 49.8529 13.2092C49.6865 12.9341 49.4487 12.715 49.1396 12.552C48.8339 12.3889 48.4704 12.3074 48.0493 12.3074H45.7208V15.6498ZM45.7208 11.0795H47.8302C48.1834 11.0795 48.501 11.0115 48.7829 10.8757C49.0683 10.7398 49.2942 10.5496 49.4606 10.305C49.6304 10.0571 49.7154 9.76495 49.7154 9.42867C49.7154 8.99728 49.5642 8.63553 49.2619 8.34341C48.9596 8.05129 48.4959 7.90523 47.8709 7.90523H45.7208V11.0795ZM56.7084 17.1579C55.9747 17.1579 55.3344 16.9898 54.7875 16.6535C54.2407 16.3173 53.8161 15.8468 53.5138 15.2422C53.2114 14.6376 53.0603 13.931 53.0603 13.1226C53.0603 12.3108 53.2114 11.6009 53.5138 10.9929C53.8161 10.3848 54.2407 9.9127 54.7875 9.57643C55.3344 9.24015 55.9747 9.07201 56.7084 9.07201C57.4421 9.07201 58.0824 9.24015 58.6292 9.57643C59.1761 9.9127 59.6007 10.3848 59.903 10.9929C60.2053 11.6009 60.3565 12.3108 60.3565 13.1226C60.3565 13.931 60.2053 14.6376 59.903 15.2422C59.6007 15.8468 59.1761 16.3173 58.6292 16.6535C58.0824 16.9898 57.4421 17.1579 56.7084 17.1579ZM56.7135 15.8791C57.189 15.8791 57.5831 15.7534 57.8956 15.502C58.2081 15.2507 58.439 14.9161 58.5885 14.4983C58.7413 14.0805 58.8178 13.6202 58.8178 13.1175C58.8178 12.6182 58.7413 12.1596 58.5885 11.7418C58.439 11.3207 58.2081 10.9827 57.8956 10.7279C57.5831 10.4732 57.189 10.3458 56.7135 10.3458C56.2345 10.3458 55.8371 10.4732 55.5212 10.7279C55.2087 10.9827 54.9761 11.3207 54.8232 11.7418C54.6737 12.1596 54.599 12.6182 54.599 13.1175C54.599 13.6202 54.6737 14.0805 54.8232 14.4983C54.9761 14.9161 55.2087 15.2507 55.5212 15.502C55.8371 15.7534 56.2345 15.8791 56.7135 15.8791ZM62.057 17V9.17391H63.5295V10.4171H63.611C63.7537 9.99592 64.005 9.66474 64.3651 9.42357C64.7285 9.17901 65.1395 9.05672 65.5981 9.05672C65.6932 9.05672 65.8053 9.06012 65.9344 9.06692C66.0668 9.07371 66.1704 9.0822 66.2452 9.09239V10.5496C66.184 10.5326 66.0753 10.5139 65.9191 10.4935C65.7628 10.4698 65.6066 10.4579 65.4503 10.4579C65.0903 10.4579 64.7693 10.5343 64.4873 10.6872C64.2088 10.8366 63.988 11.0455 63.825 11.3139C63.6619 11.5788 63.5804 11.8811 63.5804 12.2208V17H62.057ZM70.213 17.1529C69.5812 17.1529 69.0173 16.9915 68.5214 16.6688C68.0289 16.3427 67.6416 15.8791 67.3597 15.2779C67.0812 14.6732 66.9419 13.948 66.9419 13.1022C66.9419 12.2565 67.0829 11.5329 67.3648 10.9317C67.6501 10.3305 68.0408 9.87024 68.5367 9.55095C69.0326 9.23166 69.5948 9.07201 70.2232 9.07201C70.7089 9.07201 71.0995 9.15353 71.395 9.31658C71.694 9.47622 71.9249 9.66304 72.088 9.87704C72.2544 10.091 72.3835 10.2796 72.4752 10.4426H72.5669V6.56522H74.0904V17H72.6026V15.7823H72.4752C72.3835 15.9487 72.251 16.1389 72.0778 16.3529C71.908 16.5669 71.6736 16.7537 71.3747 16.9134C71.0757 17.073 70.6885 17.1529 70.213 17.1529ZM70.5493 15.8536C70.9874 15.8536 71.3577 15.7381 71.66 15.5071C71.9657 15.2728 72.1967 14.9484 72.3529 14.534C72.5126 14.1196 72.5924 13.6372 72.5924 13.087C72.5924 12.5435 72.5143 12.0679 72.358 11.6603C72.2018 11.2527 71.9725 10.9351 71.6702 10.7075C71.3679 10.48 70.9942 10.3662 70.5493 10.3662C70.0907 10.3662 69.7086 10.4851 69.4029 10.7228C69.0971 10.9606 68.8662 11.285 68.7099 11.696C68.5571 12.107 68.4806 12.5707 68.4806 13.087C68.4806 13.6101 68.5588 14.0805 68.715 14.4983C68.8713 14.9161 69.1022 15.2473 69.4079 15.4918C69.7171 15.733 70.0975 15.8536 70.5493 15.8536ZM79.6377 17.1579C78.8666 17.1579 78.2025 16.9932 77.6455 16.6637C77.0918 16.3308 76.6638 15.8638 76.3615 15.2626C76.0626 14.6579 75.9131 13.9497 75.9131 13.1379C75.9131 12.3363 76.0626 11.6298 76.3615 11.0183C76.6638 10.4069 77.085 9.92969 77.6251 9.58662C78.1686 9.24355 78.8038 9.07201 79.5307 9.07201C79.9722 9.07201 80.4002 9.14504 80.8146 9.2911C81.229 9.43716 81.601 9.66644 81.9305 9.97894C82.2599 10.2914 82.5198 10.6973 82.71 11.1967C82.9002 11.6926 82.9953 12.2955 82.9953 13.0054V13.5455H76.7742V12.4042H81.5025C81.5025 12.0034 81.4209 11.6484 81.2579 11.3393C81.0949 11.0268 80.8656 10.7806 80.5701 10.6005C80.2779 10.4205 79.9349 10.3305 79.5408 10.3305C79.1129 10.3305 78.7392 10.4358 78.4199 10.6464C78.104 10.8536 77.8595 11.1253 77.6862 11.4616C77.5164 11.7945 77.4315 12.1562 77.4315 12.5469V13.4385C77.4315 13.9616 77.5232 14.4066 77.7066 14.7734C77.8934 15.1403 78.1533 15.4205 78.4862 15.6141C78.819 15.8043 79.208 15.8995 79.6529 15.8995C79.9417 15.8995 80.2049 15.8587 80.4427 15.7772C80.6805 15.6923 80.886 15.5666 81.0592 15.4001C81.2324 15.2337 81.3649 15.0282 81.4566 14.7836L82.8985 15.0435C82.783 15.4681 82.5758 15.84 82.2769 16.1593C81.9814 16.4752 81.6095 16.7215 81.1611 16.8981C80.7161 17.0713 80.2083 17.1579 79.6377 17.1579ZM84.6856 17V9.17391H86.1581V10.4171H86.2396C86.3823 9.99592 86.6337 9.66474 86.9937 9.42357C87.3572 9.17901 87.7682 9.05672 88.2267 9.05672C88.3218 9.05672 88.4339 9.06012 88.563 9.06692C88.6955 9.07371 88.7991 9.0822 88.8738 9.09239V10.5496C88.8127 10.5326 88.704 10.5139 88.5477 10.4935C88.3915 10.4698 88.2352 10.4579 88.079 10.4579C87.7189 10.4579 87.3979 10.5343 87.116 10.6872C86.8375 10.8366 86.6167 11.0455 86.4536 11.3139C86.2906 11.5788 86.2091 11.8811 86.2091 12.2208V17H84.6856Z" fill="white"/>
</svg>
