<svg width="84" height="25" viewBox="0 0 84 25" fill="none" xmlns="http://www.w3.org/2000/svg">
<path d="M18.6187 10.7091C18.2719 11.058 18.0064 11.4791 17.841 11.9422C17.6756 12.4055 17.6143 12.8995 17.6616 13.3891L17.6452 13.3726C17.6939 13.949 17.6161 14.5289 17.4174 15.0721C17.2188 15.6153 16.904 16.1085 16.4951 16.5175C16.0861 16.9265 15.5929 17.2413 15.0496 17.4399C14.5065 17.6385 13.9265 17.7163 13.3502 17.6676L13.3667 17.6841C12.6773 17.6199 11.985 17.7699 11.3839 18.1136C10.7829 18.4574 10.3026 18.9781 10.0084 19.6049C9.71424 20.2317 9.62046 20.9338 9.73995 21.6159C9.85954 22.2978 10.1865 22.9263 10.6763 23.4156C11.1661 23.905 11.7948 24.2313 12.4769 24.3502C13.159 24.4692 13.8611 24.3747 14.4876 24.08C15.114 23.7852 15.6343 23.3045 15.9775 22.7031C16.3207 22.1018 16.4701 21.4093 16.4054 20.72L16.4228 20.7365C16.3741 20.1602 16.4518 19.5802 16.6504 19.037C16.849 18.4938 17.1639 18.0006 17.5728 17.5916C17.9818 17.1826 18.4751 16.8678 19.0182 16.6692C19.5614 16.4706 20.1414 16.3928 20.7177 16.4415L20.7003 16.425C21.2634 16.4756 21.8302 16.3833 22.3482 16.1566C22.8661 15.9298 23.3185 15.576 23.6632 15.1279C24.008 14.6799 24.2342 14.1519 24.3206 13.5932C24.407 13.0345 24.351 12.463 24.1578 11.9315C23.9645 11.4002 23.6403 10.9262 23.2151 10.5536C22.7899 10.1809 22.2775 9.92158 21.7254 9.7997C21.1733 9.67782 20.5993 9.69722 20.0567 9.85615C19.5141 10.0152 19.0205 10.3085 18.6215 10.7091H18.6187Z" fill="#2FB868"/>
<path d="M11.8681 15.5268L11.8507 15.5103C12.3405 15.5596 12.8352 15.4995 13.299 15.3343C13.7627 15.169 14.1839 14.9028 14.5322 14.5549C14.8803 14.2069 15.147 13.7858 15.3125 13.3222C15.4781 12.8586 15.5386 12.364 15.4896 11.8741L15.507 11.8906C15.4583 11.3143 15.5361 10.7343 15.7347 10.1911C15.9333 9.64798 16.2481 9.15471 16.6571 8.74571C17.0661 8.3368 17.5593 8.02196 18.1025 7.8234C18.6457 7.62472 19.2256 7.54701 19.802 7.59566L19.7846 7.57919C20.474 7.64397 21.1666 7.49443 21.7679 7.15107C22.3693 6.80771 22.8501 6.2872 23.1447 5.66055C23.4393 5.03391 23.5335 4.33163 23.4143 3.6495C23.2952 2.96737 22.9686 2.33861 22.4789 1.84896C21.9892 1.35932 21.3605 1.03264 20.6783 0.913485C19.9962 0.794326 19.294 0.888488 18.6673 1.18313C18.0406 1.47777 17.5202 1.95855 17.1768 2.55989C16.8334 3.16122 16.6839 3.85384 16.7486 4.54326L16.7322 4.52588C16.7809 5.10222 16.7034 5.68227 16.5048 6.22551C16.3063 6.76876 15.9914 7.26211 15.5825 7.67115C15.1735 8.08006 14.6801 8.3949 14.1369 8.59346C13.5936 8.79201 13.0136 8.8696 12.4372 8.82083L12.4537 8.83822C11.9639 8.7889 11.4692 8.84901 11.0055 9.01426C10.5417 9.17942 10.1205 9.44568 9.77223 9.79365C9.42398 10.1416 9.15745 10.5627 8.99184 11.0263C8.82631 11.4899 8.76583 11.9845 8.81479 12.4744L8.79832 12.4579C8.84681 13.0342 8.76894 13.6141 8.5703 14.1572C8.37157 14.7003 8.05681 15.1935 7.6479 15.6024C7.23896 16.0114 6.74574 16.3261 6.20264 16.5248C5.65954 16.7235 5.07963 16.8014 4.50336 16.7529L4.51983 16.7693C3.83041 16.7046 3.13779 16.8541 2.53645 17.1975C1.93512 17.5409 1.45434 18.0613 1.1597 18.688C0.865058 19.3146 0.770887 20.0169 0.890046 20.699C1.00921 21.3811 1.33589 22.0099 1.82553 22.4995C2.31518 22.9892 2.94394 23.3159 3.62607 23.435C4.3082 23.5542 5.01048 23.46 5.63713 23.1654C6.26377 22.8707 6.78428 22.39 7.12764 21.7887C7.47103 21.1873 7.62054 20.4947 7.55576 19.8053L7.57315 19.8217C7.52447 19.2454 7.60224 18.6655 7.80089 18.1222C7.99944 17.5791 8.31429 17.0858 8.7232 16.6768C9.1322 16.2679 9.62546 15.9531 10.1686 15.7545C10.7118 15.5559 11.2917 15.4781 11.8681 15.5268Z" fill="#2FB868"/>
<path d="M5.73688 13.6891C6.08368 13.3403 6.34919 12.9192 6.51448 12.456C6.67976 11.9927 6.74074 11.4986 6.69305 11.0091L6.71042 11.0256C6.66174 10.4491 6.73948 9.86894 6.93823 9.32562C7.13697 8.7823 7.45194 8.28894 7.86112 7.87994C8.2703 7.47096 8.76375 7.15621 9.30717 6.95771C9.85058 6.75919 10.4308 6.68169 11.0072 6.73063L10.9898 6.71416C11.679 6.77873 12.3714 6.62914 12.9724 6.28579C13.5735 5.94246 14.0539 5.42208 14.3485 4.79564C14.6429 4.16918 14.737 3.46716 14.6178 2.78528C14.4987 2.1034 14.1721 1.47488 13.6826 0.985415C13.1932 0.495951 12.5646 0.169374 11.8828 0.0502241C11.2009 -0.0689348 10.4988 0.0251443 9.87245 0.319606C9.24595 0.614067 8.7256 1.09459 8.3823 1.69565C8.0389 2.2967 7.8893 2.98904 7.9539 3.67823L7.93743 3.66176C7.98611 4.23806 7.90833 4.81804 7.70969 5.36122C7.51105 5.90439 7.19631 6.39767 6.78734 6.80663C6.37839 7.2156 5.8851 7.53038 5.34193 7.72897C4.79875 7.92761 4.21878 8.00539 3.64248 7.95671L3.65894 7.97318C3.09583 7.92267 2.52908 8.01518 2.01122 8.242C1.49335 8.46883 1.04112 8.82275 0.696433 9.27091C0.351748 9.71898 0.125764 10.2469 0.0394075 10.8056C-0.0469399 11.3644 0.00913973 11.9359 0.202449 12.4671C0.395759 12.9985 0.720058 13.4723 1.14528 13.8449C1.5705 14.2176 2.0829 14.4768 2.63498 14.5987C3.18706 14.7205 3.76097 14.701 4.30353 14.5421C4.84608 14.383 5.33971 14.0897 5.7387 13.6891H5.73688Z" fill="#2FB868"/>
<path d="M33.8764 17V15.9504L39.3638 7.92052H33.8305V6.56522H41.2897V7.61481L35.8023 15.6447H41.3356V17H33.8764ZM44.1506 19.9348C43.9231 19.9348 43.7159 19.9161 43.529 19.8787C43.3422 19.8448 43.203 19.8074 43.1112 19.7666L43.4781 18.5183C43.7566 18.5931 44.0046 18.6253 44.222 18.6151C44.4394 18.605 44.6313 18.5234 44.7977 18.3706C44.9676 18.2177 45.117 17.9681 45.2461 17.6216L45.4346 17.1019L42.5712 9.17391H44.2016L46.1836 15.2473H46.2651L48.2471 9.17391H49.8826L46.6574 18.0445C46.508 18.4521 46.3178 18.7969 46.0868 19.0788C45.8558 19.3641 45.5807 19.5781 45.2614 19.7208C44.9421 19.8635 44.5718 19.9348 44.1506 19.9348ZM52.8378 12.3533V17H51.3144V9.17391H52.7767V10.4477H52.8735C53.0535 10.0333 53.3354 9.70041 53.7193 9.44905C54.1065 9.19769 54.5939 9.07201 55.1816 9.07201C55.7148 9.07201 56.1819 9.1841 56.5827 9.40829C56.9835 9.62908 57.2943 9.95856 57.5151 10.3967C57.7359 10.8349 57.8463 11.3767 57.8463 12.0221V17H56.3229V12.2055C56.3229 11.6382 56.1751 11.195 55.8796 10.8757C55.5841 10.553 55.1782 10.3916 54.6619 10.3916C54.3086 10.3916 53.9944 10.4681 53.7193 10.6209C53.4475 10.7738 53.2318 10.998 53.0722 11.2935C52.9159 11.5856 52.8378 11.9389 52.8378 12.3533ZM63.5426 9.17391V10.3967H59.2678V9.17391H63.5426ZM60.4142 7.29891H61.9377V14.7021C61.9377 14.9976 61.9818 15.2201 62.0701 15.3696C62.1585 15.5156 62.2722 15.6158 62.4115 15.6702C62.5542 15.7211 62.7087 15.7466 62.8752 15.7466C62.9975 15.7466 63.1045 15.7381 63.1962 15.7211C63.2879 15.7041 63.3592 15.6906 63.4102 15.6804L63.6853 16.9389C63.597 16.9728 63.4713 17.0068 63.3083 17.0408C63.1452 17.0781 62.9414 17.0985 62.6968 17.1019C62.296 17.1087 61.9224 17.0374 61.5759 16.8879C61.2295 16.7385 60.9492 16.5075 60.7352 16.195C60.5212 15.8825 60.4142 15.4901 60.4142 15.018V7.29891ZM65.2278 17V9.17391H66.7003V10.4171H66.7818C66.9245 9.99592 67.1759 9.66474 67.5359 9.42357C67.8994 9.17901 68.3104 9.05672 68.7689 9.05672C68.864 9.05672 68.9761 9.06012 69.1052 9.06692C69.2377 9.07371 69.3413 9.0822 69.416 9.09239V10.5496C69.3549 10.5326 69.2462 10.5139 69.0899 10.4935C68.9337 10.4698 68.7774 10.4579 68.6212 10.4579C68.2611 10.4579 67.9401 10.5343 67.6582 10.6872C67.3797 10.8366 67.1589 11.0455 66.9958 11.3139C66.8328 11.5788 66.7513 11.8811 66.7513 12.2208V17H65.2278ZM72.9418 17.1732C72.4459 17.1732 71.9975 17.0815 71.5967 16.8981C71.1959 16.7113 70.8783 16.4412 70.6439 16.088C70.413 15.7347 70.2975 15.3016 70.2975 14.7887C70.2975 14.3471 70.3824 13.9837 70.5522 13.6984C70.7221 13.413 70.9513 13.1872 71.2401 13.0207C71.5288 12.8543 71.8515 12.7286 72.2081 12.6437C72.5648 12.5588 72.9282 12.4942 73.2985 12.4501C73.7672 12.3957 74.1477 12.3516 74.4398 12.3176C74.7319 12.2802 74.9442 12.2208 75.0767 12.1393C75.2092 12.0577 75.2754 11.9253 75.2754 11.7418V11.7062C75.2754 11.2612 75.1497 10.9164 74.8984 10.6719C74.6504 10.4273 74.2801 10.305 73.7876 10.305C73.2747 10.305 72.8705 10.4188 72.575 10.6464C72.2829 10.8706 72.0808 11.1202 71.9687 11.3954L70.5369 11.0693C70.7068 10.5937 70.9547 10.2099 71.2808 9.9178C71.6103 9.62228 71.989 9.40829 72.417 9.27581C72.845 9.13995 73.2951 9.07201 73.7672 9.07201C74.0797 9.07201 74.4109 9.10937 74.7608 9.1841C75.114 9.25543 75.4435 9.38791 75.7492 9.58152C76.0583 9.77514 76.3114 10.052 76.5084 10.412C76.7054 10.7687 76.8039 11.2323 76.8039 11.803V17H75.3162V15.93H75.255C75.1565 16.127 75.0087 16.3207 74.8117 16.5109C74.6147 16.7011 74.3617 16.859 74.0526 16.9847C73.7435 17.1104 73.3732 17.1732 72.9418 17.1732ZM73.273 15.9504C73.6942 15.9504 74.0543 15.8672 74.3532 15.7007C74.6555 15.5343 74.8848 15.3169 75.041 15.0486C75.2007 14.7768 75.2805 14.4864 75.2805 14.1773V13.1685C75.2261 13.2228 75.1208 13.2738 74.9646 13.3213C74.8117 13.3655 74.6368 13.4046 74.4398 13.4385C74.2428 13.4691 74.0509 13.498 73.864 13.5251C73.6772 13.5489 73.521 13.5693 73.3953 13.5863C73.0998 13.6236 72.8297 13.6865 72.5852 13.7748C72.344 13.8631 72.1504 13.9905 72.0043 14.1569C71.8617 14.32 71.7903 14.5374 71.7903 14.8091C71.7903 15.1861 71.9296 15.4715 72.2081 15.6651C72.4867 15.8553 72.8416 15.9504 73.273 15.9504Z" fill="white"/>
</svg>
