<svg width="93" height="25" viewBox="0 0 93 25" fill="none" xmlns="http://www.w3.org/2000/svg">
<path d="M0 16.2834L8.25041 12.6113L12.9992 15.3654L13.9585 24.4005L8.1065 24.3522L8.96992 18.0711L7.9626 17.4913L3.02195 21.3566L0 16.2834Z" fill="#B4C0D3"/>
<path d="M13.5273 14.9776L20.8184 20.3407L23.6964 15.1709L17.8444 12.8034V11.6438L23.6964 9.22798L20.8184 4.10645L13.5273 9.46956V14.9776Z" fill="#00D3AB"/>
<path d="M12.9992 9.03516L13.9585 0L8.1065 0.0966316L8.96992 6.37776L7.9626 6.95756L2.97398 3.09225L0 8.11715L8.25041 11.7892L12.9992 9.03516Z" fill="#4876EF"/>
<path d="M38.8376 9.30638C38.7833 8.82405 38.5591 8.45041 38.1651 8.18546C37.7711 7.91712 37.2751 7.78295 36.6773 7.78295C36.2493 7.78295 35.8791 7.85088 35.5666 7.98675C35.2541 8.11922 35.0112 8.30265 34.838 8.53702C34.6681 8.768 34.5832 9.03125 34.5832 9.32677C34.5832 9.57473 34.641 9.78872 34.7565 9.96875C34.8753 10.1488 35.0299 10.2999 35.2201 10.4222C35.4137 10.5411 35.6209 10.6413 35.8417 10.7228C36.0625 10.801 36.2748 10.8655 36.4786 10.9164L37.4976 11.1814C37.8305 11.2629 38.1719 11.3733 38.5217 11.5126C38.8716 11.6518 39.196 11.8353 39.4949 12.0628C39.7938 12.2904 40.035 12.5724 40.2184 12.9086C40.4052 13.2449 40.4986 13.6474 40.4986 14.1162C40.4986 14.7072 40.3458 15.232 40.0401 15.6906C39.7378 16.1491 39.2979 16.5109 38.7204 16.7758C38.1464 17.0408 37.4518 17.1732 36.6365 17.1732C35.8553 17.1732 35.1793 17.0493 34.6087 16.8013C34.038 16.5533 33.5914 16.2018 33.2687 15.7466C32.946 15.288 32.7677 14.7446 32.7337 14.1162H34.3132C34.3438 14.4932 34.466 14.8074 34.68 15.0588C34.8974 15.3067 35.1743 15.4918 35.5105 15.6141C35.8502 15.733 36.2221 15.7925 36.6264 15.7925C37.0713 15.7925 37.4671 15.7228 37.8135 15.5836C38.1634 15.4409 38.4385 15.2439 38.6389 14.9925C38.8393 14.7378 38.9395 14.4406 38.9395 14.1009C38.9395 13.7918 38.8512 13.5387 38.6746 13.3417C38.5014 13.1447 38.2653 12.9817 37.9664 12.8526C37.6709 12.7235 37.3363 12.6097 36.9626 12.5112L35.7296 12.1749C34.894 11.9473 34.2317 11.6128 33.7425 11.1712C33.2568 10.7296 33.0139 10.1454 33.0139 9.41848C33.0139 8.81725 33.177 8.29246 33.5031 7.84409C33.8291 7.39572 34.2707 7.04755 34.8278 6.79959C35.3849 6.54823 36.0132 6.42255 36.713 6.42255C37.4195 6.42255 38.0428 6.54653 38.5829 6.7945C39.1264 7.04246 39.5543 7.38383 39.8668 7.81861C40.1793 8.25 40.3424 8.74592 40.356 9.30638H38.8376ZM42.2577 17V9.17391H43.7812V17H42.2577ZM43.0271 7.96637C42.7621 7.96637 42.5346 7.87806 42.3443 7.70143C42.1575 7.5214 42.0641 7.3074 42.0641 7.05944C42.0641 6.80808 42.1575 6.59409 42.3443 6.41746C42.5346 6.23743 42.7621 6.14742 43.0271 6.14742C43.292 6.14742 43.5179 6.23743 43.7047 6.41746C43.895 6.59409 43.9901 6.80808 43.9901 7.05944C43.9901 7.3074 43.895 7.5214 43.7047 7.70143C43.5179 7.87806 43.292 7.96637 43.0271 7.96637ZM49.4839 9.17391V10.3967H45.2091V9.17391H49.4839ZM46.3555 7.29891H47.8789V14.7021C47.8789 14.9976 47.9231 15.2201 48.0114 15.3696C48.0997 15.5156 48.2135 15.6158 48.3528 15.6702C48.4954 15.7211 48.65 15.7466 48.8164 15.7466C48.9387 15.7466 49.0457 15.7381 49.1374 15.7211C49.2291 15.7041 49.3004 15.6906 49.3514 15.6804L49.6265 16.9389C49.5382 16.9728 49.4125 17.0068 49.2495 17.0408C49.0864 17.0781 48.8826 17.0985 48.6381 17.1019C48.2373 17.1087 47.8636 17.0374 47.5172 16.8879C47.1707 16.7385 46.8905 16.5075 46.6765 16.195C46.4625 15.8825 46.3555 15.4901 46.3555 15.018V7.29891ZM54.458 17.1579C53.6869 17.1579 53.0228 16.9932 52.4658 16.6637C51.9121 16.3308 51.4841 15.8638 51.1818 15.2626C50.8829 14.6579 50.7334 13.9497 50.7334 13.1379C50.7334 12.3363 50.8829 11.6298 51.1818 11.0183C51.4841 10.4069 51.9053 9.92969 52.4454 9.58662C52.9889 9.24355 53.6241 9.07201 54.351 9.07201C54.7925 9.07201 55.2205 9.14504 55.6349 9.2911C56.0493 9.43716 56.4213 9.66644 56.7508 9.97894C57.0802 10.2914 57.3401 10.6973 57.5303 11.1967C57.7205 11.6926 57.8156 12.2955 57.8156 13.0054V13.5455H51.5945V12.4042H56.3228C56.3228 12.0034 56.2413 11.6484 56.0782 11.3393C55.9152 11.0268 55.6859 10.7806 55.3904 10.6005C55.0983 10.4205 54.7552 10.3305 54.3612 10.3305C53.9332 10.3305 53.5595 10.4358 53.2402 10.6464C52.9243 10.8536 52.6798 11.1253 52.5065 11.4616C52.3367 11.7945 52.2518 12.1562 52.2518 12.5469V13.4385C52.2518 13.9616 52.3435 14.4066 52.5269 14.7734C52.7137 15.1403 52.9736 15.4205 53.3065 15.6141C53.6394 15.8043 54.0283 15.8995 54.4733 15.8995C54.762 15.8995 55.0252 15.8587 55.263 15.7772C55.5008 15.6923 55.7063 15.5666 55.8795 15.4001C56.0527 15.2337 56.1852 15.0282 56.2769 14.7836L57.7188 15.0435C57.6033 15.4681 57.3961 15.84 57.0972 16.1593C56.8017 16.4752 56.4298 16.7215 55.9814 16.8981C55.5364 17.0713 55.0286 17.1579 54.458 17.1579ZM59.5059 17V9.17391H60.9682V10.4477H61.065C61.2281 10.0163 61.4947 9.68003 61.865 9.43886C62.2352 9.19429 62.6785 9.07201 63.1948 9.07201C63.7179 9.07201 64.1561 9.19429 64.5093 9.43886C64.866 9.68342 65.1292 10.0197 65.2991 10.4477H65.3806C65.5674 10.0299 65.8646 9.69701 66.2723 9.44905C66.6799 9.19769 67.1656 9.07201 67.7295 9.07201C68.4394 9.07201 69.0185 9.2945 69.4669 9.73947C69.9187 10.1844 70.1445 10.8553 70.1445 11.752V17H68.6211V11.8947C68.6211 11.3648 68.4767 10.981 68.188 10.7432C67.8993 10.5054 67.5545 10.3865 67.1537 10.3865C66.6578 10.3865 66.2723 10.5394 65.9971 10.8451C65.722 11.1474 65.5844 11.5363 65.5844 12.0119V17H64.0661V11.7979C64.0661 11.3733 63.9336 11.0319 63.6686 10.7738C63.4037 10.5156 63.0589 10.3865 62.6343 10.3865C62.3456 10.3865 62.079 10.463 61.8344 10.6158C61.5932 10.7653 61.3979 10.9742 61.2485 11.2425C61.1024 11.5109 61.0294 11.8217 61.0294 12.1749V17H59.5059ZM74.4639 17.1732C73.968 17.1732 73.5196 17.0815 73.1188 16.8981C72.718 16.7113 72.4004 16.4412 72.166 16.088C71.935 15.7347 71.8196 15.3016 71.8196 14.7887C71.8196 14.3471 71.9045 13.9837 72.0743 13.6984C72.2441 13.413 72.4734 13.1872 72.7621 13.0207C73.0509 12.8543 73.3736 12.7286 73.7302 12.6437C74.0869 12.5588 74.4503 12.4942 74.8206 12.4501C75.2893 12.3957 75.6698 12.3516 75.9619 12.3176C76.254 12.2802 76.4663 12.2208 76.5988 12.1393C76.7312 12.0577 76.7975 11.9253 76.7975 11.7418V11.7062C76.7975 11.2612 76.6718 10.9164 76.4204 10.6719C76.1725 10.4273 75.8022 10.305 75.3097 10.305C74.7968 10.305 74.3926 10.4188 74.0971 10.6464C73.8049 10.8706 73.6028 11.1202 73.4907 11.3954L72.059 11.0693C72.2289 10.5937 72.4768 10.2099 72.8029 9.9178C73.1324 9.62228 73.5111 9.40829 73.9391 9.27581C74.3671 9.13995 74.8172 9.07201 75.2893 9.07201C75.6018 9.07201 75.933 9.10937 76.2829 9.1841C76.6361 9.25543 76.9656 9.38791 77.2713 9.58152C77.5804 9.77514 77.8335 10.052 78.0305 10.412C78.2275 10.7687 78.326 11.2323 78.326 11.803V17H76.8382V15.93H76.7771C76.6786 16.127 76.5308 16.3207 76.3338 16.5109C76.1368 16.7011 75.8837 16.859 75.5746 16.9847C75.2655 17.1104 74.8953 17.1732 74.4639 17.1732ZM74.7951 15.9504C75.2163 15.9504 75.5763 15.8672 75.8753 15.7007C76.1776 15.5343 76.4068 15.3169 76.5631 15.0486C76.7227 14.7768 76.8026 14.4864 76.8026 14.1773V13.1685C76.7482 13.2228 76.6429 13.2738 76.4867 13.3213C76.3338 13.3655 76.1589 13.4046 75.9619 13.4385C75.7649 13.4691 75.5729 13.498 75.3861 13.5251C75.1993 13.5489 75.0431 13.5693 74.9174 13.5863C74.6219 13.6236 74.3518 13.6865 74.1073 13.7748C73.8661 13.8631 73.6725 13.9905 73.5264 14.1569C73.3837 14.32 73.3124 14.5374 73.3124 14.8091C73.3124 15.1861 73.4517 15.4715 73.7302 15.6651C74.0087 15.8553 74.3637 15.9504 74.7951 15.9504ZM80.3551 17V9.17391H81.8276V10.4171H81.9091C82.0518 9.99592 82.3032 9.66474 82.6632 9.42357C83.0267 9.17901 83.4377 9.05672 83.8962 9.05672C83.9913 9.05672 84.1034 9.06012 84.2325 9.06692C84.365 9.07371 84.4686 9.0822 84.5433 9.09239V10.5496C84.4822 10.5326 84.3735 10.5139 84.2172 10.4935C84.061 10.4698 83.9047 10.4579 83.7485 10.4579C83.3884 10.4579 83.0674 10.5343 82.7855 10.6872C82.507 10.8366 82.2862 11.0455 82.1231 11.3139C81.9601 11.5788 81.8786 11.8811 81.8786 12.2208V17H80.3551ZM87.2628 14.3454L87.2526 12.4857H87.5176L90.6358 9.17391H92.4598L88.9035 12.9443H88.664L87.2628 14.3454ZM85.8617 17V6.56522H87.3851V17H85.8617ZM90.8039 17L88.0016 13.2806L89.0512 12.2157L92.6738 17H90.8039Z" fill="white"/>
</svg>
