<svg width="99" height="25" viewBox="0 0 99 25" fill="none" xmlns="http://www.w3.org/2000/svg">
<path d="M17.9788 3.2105H7.7052V0H17.9788C21.525 0 24.3998 2.87478 24.3998 6.421V16.6946H21.1893V6.421C21.1893 4.64789 19.7519 3.2105 17.9788 3.2105Z" fill="#7476ED"/>
<path d="M6.42099 21.1893H16.6946V24.3998H6.42099C2.87478 24.3998 -3.1002e-07 21.525 0 17.9788L6.63366e-07 7.70519H3.2105L3.2105 17.9788C3.2105 19.7519 4.64789 21.1893 6.42099 21.1893Z" fill="#7476ED"/>
<path fill-rule="evenodd" clip-rule="evenodd" d="M18.6209 12.1999C18.6209 15.7461 15.7461 18.6209 12.1999 18.6209C8.65367 18.6209 5.7789 15.7461 5.7789 12.1999C5.7789 8.65367 8.65367 5.7789 12.1999 5.7789C15.7461 5.7789 18.6209 8.65367 18.6209 12.1999ZM15.4104 12.1999C15.4104 13.973 13.973 15.4104 12.1999 15.4104C10.4268 15.4104 8.98939 13.973 8.98939 12.1999C8.98939 10.4268 10.4268 8.98939 12.1999 8.98939C13.973 8.98939 15.4104 10.4268 15.4104 12.1999Z" fill="#7476ED"/>
<path d="M36.0264 17.5186C35.3278 17.5186 34.699 17.3988 34.1402 17.1593C33.5813 16.9098 33.1422 16.5605 32.8228 16.1114C32.5034 15.6623 32.3438 15.1383 32.3438 14.5395H34.1701C34.21 14.9886 34.3847 15.3579 34.694 15.6473C35.0134 15.9367 35.4575 16.0814 36.0264 16.0814C36.6152 16.0814 37.0743 15.9417 37.4036 15.6623C37.733 15.3729 37.8976 15.0036 37.8976 14.5545C37.8976 14.2052 37.7929 13.9208 37.5833 13.7012C37.3837 13.4816 37.1292 13.312 36.8198 13.1922C36.5204 13.0725 36.1012 12.9427 35.5623 12.803C34.8837 12.6234 34.3298 12.4437 33.9006 12.2641C33.4815 12.0745 33.1222 11.785 32.8228 11.3958C32.5234 11.0066 32.3737 10.4876 32.3737 9.83893C32.3737 9.24013 32.5234 8.71618 32.8228 8.26708C33.1222 7.81797 33.5414 7.47366 34.0803 7.23414C34.6192 6.99462 35.243 6.87486 35.9515 6.87486C36.9595 6.87486 37.7829 7.12935 38.4216 7.63833C39.0703 8.13733 39.4296 8.82596 39.4994 9.7042H37.6132C37.5833 9.32496 37.4036 9.00061 37.0743 8.73115C36.7449 8.46169 36.3108 8.32695 35.7719 8.32695C35.2829 8.32695 34.8837 8.45171 34.5743 8.70121C34.2649 8.95071 34.1102 9.30999 34.1102 9.77905C34.1102 10.0984 34.205 10.3629 34.3946 10.5725C34.5942 10.7721 34.8438 10.9317 35.1432 11.0515C35.4426 11.1713 35.8517 11.301 36.3707 11.4407C37.0593 11.6303 37.6182 11.82 38.0473 12.0096C38.4865 12.1992 38.8557 12.4936 39.1551 12.8928C39.4645 13.282 39.6192 13.806 39.6192 14.4647C39.6192 14.9936 39.4745 15.4926 39.1851 15.9617C38.9056 16.4307 38.4915 16.81 37.9426 17.0994C37.4036 17.3789 36.7649 17.5186 36.0264 17.5186Z" fill="white"/>
<path d="M45.0461 9.03055C45.6948 9.03055 46.2736 9.16528 46.7826 9.43474C47.3016 9.7042 47.7058 10.1034 47.9952 10.6323C48.2846 11.1613 48.4293 11.8 48.4293 12.5485V17.4138H46.7377V12.803C46.7377 12.0645 46.5531 11.5006 46.1838 11.1114C45.8145 10.7122 45.3106 10.5126 44.6718 10.5126C44.0331 10.5126 43.5241 10.7122 43.1449 11.1114C42.7756 11.5006 42.591 12.0645 42.591 12.803V17.4138H40.8844V9.16528H42.591V10.1084C42.8704 9.76907 43.2247 9.5046 43.6539 9.31498C44.093 9.12536 44.5571 9.03055 45.0461 9.03055Z" fill="white"/>
<path d="M49.2888 13.2521C49.2888 12.4238 49.4585 11.6902 49.7978 11.0515C50.1471 10.4128 50.6162 9.91877 51.205 9.56947C51.8038 9.21019 52.4625 9.03055 53.181 9.03055C53.8297 9.03055 54.3936 9.16029 54.8726 9.41977C55.3617 9.66927 55.7509 9.98364 56.0403 10.3629V9.16528H57.7619V17.4138H56.0403V16.1862C55.7509 16.5755 55.3567 16.8998 54.8577 17.1593C54.3587 17.4188 53.7898 17.5485 53.1511 17.5485C52.4425 17.5485 51.7938 17.3689 51.205 17.0096C50.6162 16.6403 50.1471 16.1313 49.7978 15.4826C49.4585 14.824 49.2888 14.0804 49.2888 13.2521ZM56.0403 13.282C56.0403 12.7132 55.9205 12.2192 55.681 11.8C55.4515 11.3808 55.1471 11.0615 54.7678 10.8419C54.3886 10.6224 53.9794 10.5126 53.5403 10.5126C53.1012 10.5126 52.692 10.6224 52.3128 10.8419C51.9335 11.0515 51.6241 11.3659 51.3846 11.785C51.1551 12.1942 51.0403 12.6832 51.0403 13.2521C51.0403 13.821 51.1551 14.32 51.3846 14.7491C51.6241 15.1783 51.9335 15.5076 52.3128 15.7371C52.702 15.9567 53.1112 16.0665 53.5403 16.0665C53.9794 16.0665 54.3886 15.9567 54.7678 15.7371C55.1471 15.5176 55.4515 15.1982 55.681 14.7791C55.9205 14.3499 56.0403 13.8509 56.0403 13.282Z" fill="white"/>
<path d="M60.9615 10.3779C61.2509 9.99861 61.6451 9.67925 62.1441 9.41977C62.6431 9.16029 63.207 9.03055 63.8357 9.03055C64.5543 9.03055 65.208 9.21019 65.7968 9.56947C66.3956 9.91877 66.8647 10.4128 67.204 11.0515C67.5433 11.6902 67.713 12.4238 67.713 13.2521C67.713 14.0804 67.5433 14.824 67.204 15.4826C66.8647 16.1313 66.3956 16.6403 65.7968 17.0096C65.208 17.3689 64.5543 17.5485 63.8357 17.5485C63.207 17.5485 62.6481 17.4238 62.1591 17.1743C61.6701 16.9148 61.2709 16.5954 60.9615 16.2162V21.3359H59.2549V9.16528H60.9615V10.3779ZM65.9764 13.2521C65.9764 12.6832 65.8567 12.1942 65.6172 11.785C65.3876 11.3659 65.0782 11.0515 64.689 10.8419C64.3098 10.6224 63.9006 10.5126 63.4615 10.5126C63.0323 10.5126 62.6232 10.6224 62.2339 10.8419C61.8547 11.0615 61.5453 11.3808 61.3058 11.8C61.0762 12.2192 60.9615 12.7132 60.9615 13.282C60.9615 13.8509 61.0762 14.3499 61.3058 14.7791C61.5453 15.1982 61.8547 15.5176 62.2339 15.7371C62.6232 15.9567 63.0323 16.0665 63.4615 16.0665C63.9006 16.0665 64.3098 15.9567 64.689 15.7371C65.0782 15.5076 65.3876 15.1783 65.6172 14.7491C65.8567 14.32 65.9764 13.821 65.9764 13.2521Z" fill="white"/>
<path d="M72.0803 17.5186C71.3817 17.5186 70.7529 17.3988 70.194 17.1593C69.6351 16.9098 69.196 16.5605 68.8767 16.1114C68.5573 15.6623 68.3976 15.1383 68.3976 14.5395H70.224C70.2639 14.9886 70.4385 15.3579 70.7479 15.6473C71.0673 15.9367 71.5114 16.0814 72.0803 16.0814C72.6691 16.0814 73.1282 15.9417 73.4575 15.6623C73.7868 15.3729 73.9515 15.0036 73.9515 14.5545C73.9515 14.2052 73.8467 13.9208 73.6371 13.7012C73.4375 13.4816 73.1831 13.312 72.8737 13.1922C72.5743 13.0725 72.1551 12.9427 71.6162 12.803C70.9375 12.6234 70.3836 12.4437 69.9545 12.2641C69.5353 12.0745 69.1761 11.785 68.8767 11.3958C68.5773 11.0066 68.4276 10.4876 68.4276 9.83893C68.4276 9.24013 68.5773 8.71618 68.8767 8.26708C69.1761 7.81797 69.5952 7.47366 70.1341 7.23414C70.6731 6.99462 71.2968 6.87486 72.0054 6.87486C73.0134 6.87486 73.8367 7.12935 74.4755 7.63833C75.1242 8.13733 75.4835 8.82596 75.5533 9.7042H73.6671C73.6371 9.32496 73.4575 9.00061 73.1282 8.73115C72.7988 8.46169 72.3647 8.32695 71.8258 8.32695C71.3367 8.32695 70.9375 8.45171 70.6282 8.70121C70.3188 8.95071 70.1641 9.30999 70.1641 9.77905C70.1641 10.0984 70.2589 10.3629 70.4485 10.5725C70.6481 10.7721 70.8976 10.9317 71.197 11.0515C71.4964 11.1713 71.9056 11.301 72.4246 11.4407C73.1132 11.6303 73.6721 11.82 74.1012 12.0096C74.5403 12.1992 74.9096 12.4936 75.209 12.8928C75.5184 13.282 75.6731 13.806 75.6731 14.4647C75.6731 14.9936 75.5284 15.4926 75.2389 15.9617C74.9595 16.4307 74.5453 16.81 73.9964 17.0994C73.4575 17.3789 72.8188 17.5186 72.0803 17.5186Z" fill="white"/>
<path d="M81.2047 9.03055C81.8335 9.03055 82.3924 9.16528 82.8814 9.43474C83.3804 9.7042 83.7696 10.1034 84.0491 10.6323C84.3385 11.1613 84.4832 11.8 84.4832 12.5485V17.4138H82.7916V12.803C82.7916 12.0645 82.6069 11.5006 82.2377 11.1114C81.8684 10.7122 81.3644 10.5126 80.7257 10.5126C80.087 10.5126 79.578 10.7122 79.1988 11.1114C78.8295 11.5006 78.6449 12.0645 78.6449 12.803V17.4138H76.9383V6.33594H78.6449V10.1234C78.9343 9.77406 79.2986 9.5046 79.7377 9.31498C80.1868 9.12536 80.6758 9.03055 81.2047 9.03055Z" fill="white"/>
<path d="M89.4894 17.5485C88.7109 17.5485 88.0074 17.3739 87.3786 17.0246C86.7499 16.6653 86.2559 16.1663 85.8966 15.5276C85.5373 14.8789 85.3576 14.1303 85.3576 13.282C85.3576 12.4437 85.5423 11.7002 85.9115 11.0515C86.2808 10.4028 86.7848 9.9038 87.4235 9.5545C88.0622 9.2052 88.7758 9.03055 89.5642 9.03055C90.3527 9.03055 91.0662 9.2052 91.705 9.5545C92.3437 9.9038 92.8477 10.4028 93.2169 11.0515C93.5862 11.7002 93.7708 12.4437 93.7708 13.282C93.7708 14.1204 93.5812 14.8639 93.202 15.5126C92.8227 16.1613 92.3038 16.6653 91.6451 17.0246C90.9964 17.3739 90.2778 17.5485 89.4894 17.5485ZM89.4894 16.0665C89.9285 16.0665 90.3377 15.9617 90.7169 15.7521C91.1062 15.5425 91.4205 15.2282 91.66 14.809C91.8996 14.3898 92.0193 13.8808 92.0193 13.282C92.0193 12.6832 91.9046 12.1793 91.675 11.7701C91.4455 11.3509 91.1411 11.0365 90.7618 10.827C90.3826 10.6174 89.9734 10.5126 89.5343 10.5126C89.0952 10.5126 88.686 10.6174 88.3068 10.827C87.9375 11.0365 87.6431 11.3509 87.4235 11.7701C87.204 12.1793 87.0942 12.6832 87.0942 13.282C87.0942 14.1703 87.3187 14.8589 87.7678 15.3479C88.2269 15.827 88.8008 16.0665 89.4894 16.0665Z" fill="white"/>
<path d="M96.7004 10.5575V15.1234C96.7004 15.4327 96.7703 15.6573 96.91 15.797C97.0597 15.9268 97.3092 15.9916 97.6585 15.9916H98.7064V17.4138H97.3591C96.5906 17.4138 96.0018 17.2341 95.5926 16.8749C95.1834 16.5156 94.9788 15.9317 94.9788 15.1234V10.5575H94.0058V9.16528H94.9788V7.11438H96.7004V9.16528H98.7064V10.5575H96.7004Z" fill="white"/>
</svg>
