<svg width="104" height="25" viewBox="0 0 104 25" fill="none" xmlns="http://www.w3.org/2000/svg">
<path d="M12.2002 0C18.9381 0 24.4004 5.46232 24.4004 12.2002C24.4004 18.9381 18.9381 24.4004 12.2002 24.4004C5.46232 24.4004 0 18.9381 0 12.2002C8.85867e-08 5.46232 5.46232 8.8584e-08 12.2002 0ZM12.2852 7.78906C12.1493 7.98614 11.9938 8.304 11.8271 8.75977C11.4673 9.74398 11.1572 11.0849 10.835 12.5117C10.8198 12.5789 10.8043 12.6463 10.7891 12.7139C10.4901 14.0394 10.1775 15.4247 9.81055 16.4912C9.6191 17.0476 9.38865 17.5923 9.09473 18.0146C8.81724 18.4133 8.32136 18.9277 7.56348 18.9277C6.80353 18.9276 6.30875 18.411 6.0332 18.0107C5.74184 17.5875 5.51573 17.0424 5.32812 16.4863C4.97539 15.4408 4.67561 14.0872 4.3877 12.7861C4.36713 12.6932 4.34663 12.6001 4.32617 12.5078C4.00992 11.0818 3.70329 9.74335 3.34082 8.7627C3.20922 8.40668 3.08236 8.1367 2.96777 7.94238C2.36936 9.23778 2.0332 10.6795 2.0332 12.2002C2.0332 17.8151 6.5853 22.3672 12.2002 22.3672C17.8151 22.3672 22.3672 17.8151 22.3672 12.2002C22.3672 10.7091 22.0425 9.2944 21.4658 8.01855C21.3667 8.20208 21.2592 8.44384 21.1494 8.75195C20.8012 9.72965 20.5194 11.0645 20.2256 12.4932C20.2124 12.5571 20.1988 12.6212 20.1855 12.6855C19.9129 14.0129 19.6264 15.4082 19.2666 16.4834C19.0791 17.0435 18.8474 17.5964 18.5391 18.0264C18.2353 18.4499 17.7247 18.9277 16.9727 18.9277C16.2245 18.9276 15.7126 18.454 15.4053 18.0342C15.0921 17.6065 14.8533 17.0556 14.6582 16.4951C14.2697 15.3792 13.9577 13.9209 13.6641 12.5469L13.6543 12.5C13.3486 11.0697 13.0606 9.73004 12.7178 8.74512C12.5618 8.29696 12.414 7.98443 12.2852 7.78906ZM12.2002 2.0332C8.86122 2.0332 5.89838 3.64329 4.04492 6.12891C4.1916 6.25505 4.31955 6.39186 4.4248 6.52832C4.75412 6.95529 5.00873 7.50644 5.2168 8.06934C5.63557 9.20231 5.96957 10.683 6.27832 12.0752C6.29576 12.1539 6.31376 12.2325 6.33105 12.3105C6.629 13.6556 6.906 14.908 7.22266 15.8467C7.34519 16.2099 7.46128 16.4864 7.56641 16.6846C7.67405 16.4855 7.79293 16.207 7.91895 15.8408C8.24904 14.8815 8.54049 13.5931 8.85156 12.2148C8.86233 12.1671 8.87297 12.1192 8.88379 12.0713C9.19792 10.6801 9.5354 9.20261 9.94824 8.07324C10.1533 7.51246 10.4025 6.96403 10.7217 6.53906C11.0335 6.12395 11.5475 5.65532 12.291 5.65527C13.0393 5.65527 13.551 6.129 13.8584 6.54883C14.1715 6.97659 14.4113 7.52739 14.6064 8.08789C14.9948 9.2037 15.306 10.6614 15.5996 12.0352L15.6104 12.082C15.9161 13.5125 16.204 14.8529 16.5469 15.8379C16.6987 16.274 16.8415 16.5821 16.9678 16.7783C17.0887 16.5835 17.2261 16.2788 17.3701 15.8486C17.6905 14.8912 17.9552 13.6015 18.2402 12.2148C18.2488 12.1733 18.258 12.1316 18.2666 12.0898C18.5523 10.7005 18.8611 9.21694 19.2656 8.08105C19.4668 7.51633 19.7173 6.96008 20.0508 6.52832C20.1459 6.40515 20.2574 6.28259 20.3838 6.16895C18.5323 3.66096 15.5568 2.0332 12.2002 2.0332Z" fill="#6941C6"/>
<path d="M35.8889 17L32.7688 5.75H34.5541L36.7458 14.4622H36.8502L39.1299 5.75H40.8987L43.1783 14.4677H43.2827L45.469 5.75H47.2598L44.1342 17H42.4258L40.0582 8.57349H39.9703L37.6028 17H35.8889ZM50.3002 17.1868C49.7656 17.1868 49.2822 17.0879 48.85 16.8901C48.4179 16.6887 48.0755 16.3976 47.8228 16.0167C47.5738 15.6359 47.4493 15.1689 47.4493 14.616C47.4493 14.1399 47.5408 13.748 47.7239 13.4404C47.907 13.1328 48.1542 12.8893 48.4655 12.7098C48.7768 12.5304 49.1247 12.3949 49.5092 12.3033C49.8937 12.2118 50.2856 12.1422 50.6848 12.0946C51.1901 12.036 51.6003 11.9884 51.9152 11.9518C52.2302 11.9115 52.459 11.8474 52.6019 11.7595C52.7447 11.6716 52.8161 11.5288 52.8161 11.3311V11.2926C52.8161 10.8129 52.6806 10.4412 52.4096 10.1775C52.1423 9.91382 51.7431 9.78198 51.2121 9.78198C50.6591 9.78198 50.2233 9.90466 49.9047 10.15C49.5898 10.3917 49.3719 10.6609 49.251 10.9575L47.7075 10.606C47.8906 10.0933 48.1579 9.67944 48.5095 9.3645C48.8647 9.0459 49.273 8.81519 49.7344 8.67236C50.1959 8.52588 50.6811 8.45264 51.1901 8.45264C51.527 8.45264 51.8841 8.49292 52.2613 8.57349C52.6421 8.65039 52.9974 8.79321 53.327 9.00195C53.6602 9.21069 53.933 9.50916 54.1454 9.89734C54.3578 10.2819 54.464 10.7817 54.464 11.397V17H52.86V15.8464H52.7941C52.6879 16.0588 52.5286 16.2676 52.3162 16.4727C52.1038 16.6777 51.831 16.848 51.4977 16.9835C51.1645 17.119 50.7653 17.1868 50.3002 17.1868ZM50.6573 15.8684C51.1114 15.8684 51.4996 15.7787 51.8218 15.5992C52.1478 15.4198 52.395 15.1854 52.5634 14.8961C52.7355 14.6031 52.8216 14.29 52.8216 13.9568V12.8691C52.763 12.9277 52.6495 12.9827 52.481 13.0339C52.3162 13.0815 52.1276 13.1237 51.9152 13.1603C51.7028 13.1932 51.4959 13.2244 51.2945 13.2537C51.0931 13.2793 50.9246 13.3013 50.7891 13.3196C50.4705 13.3599 50.1794 13.4276 49.9157 13.5228C49.6557 13.618 49.447 13.7554 49.2895 13.9348C49.1357 14.1106 49.0588 14.345 49.0588 14.6379C49.0588 15.0444 49.2089 15.3521 49.5092 15.5608C49.8095 15.7659 50.1922 15.8684 50.6573 15.8684ZM63.5676 8.5625L60.5079 17H58.7501L55.6849 8.5625H57.4482L59.5851 15.0554H59.6729L61.8043 8.5625H63.5676ZM68.4606 17.1703C67.6293 17.1703 66.9134 16.9927 66.3128 16.6375C65.7159 16.2786 65.2545 15.775 64.9285 15.1268C64.6063 14.475 64.4451 13.7114 64.4451 12.8362C64.4451 11.9719 64.6063 11.2102 64.9285 10.551C65.2545 9.89185 65.7086 9.37732 66.2908 9.00745C66.8768 8.63757 67.5616 8.45264 68.3453 8.45264C68.8213 8.45264 69.2828 8.53137 69.7295 8.68884C70.1763 8.84631 70.5773 9.09351 70.9326 9.43042C71.2878 9.76733 71.5679 10.205 71.773 10.7433C71.9781 11.278 72.0806 11.928 72.0806 12.6934V13.2756H65.3735V12.0452H70.4711C70.4711 11.613 70.3832 11.2303 70.2075 10.8971C70.0317 10.5602 69.7845 10.2947 69.4659 10.1006C69.1509 9.90649 68.7811 9.80945 68.3563 9.80945C67.8948 9.80945 67.492 9.92297 67.1478 10.15C66.8072 10.3734 66.5435 10.6664 66.3567 11.0289C66.1736 11.3878 66.0821 11.7778 66.0821 12.199V13.1603C66.0821 13.7242 66.181 14.204 66.3787 14.5995C66.5801 14.995 66.8603 15.2971 67.2192 15.5059C67.5781 15.7109 67.9974 15.8135 68.4771 15.8135C68.7884 15.8135 69.0722 15.7695 69.3285 15.6816C69.5849 15.5901 69.8065 15.4546 69.9932 15.2751C70.18 15.0957 70.3228 14.8741 70.4217 14.6105L71.9763 14.8906C71.8517 15.3484 71.6284 15.7494 71.3061 16.0936C70.9875 16.4342 70.5865 16.6997 70.1031 16.8901C69.6233 17.0769 69.0759 17.1703 68.4606 17.1703ZM75.5454 5.75V17H73.903V5.75H75.5454ZM81.3915 17.1703C80.5602 17.1703 79.8443 16.9927 79.2437 16.6375C78.6468 16.2786 78.1854 15.775 77.8594 15.1268C77.5372 14.475 77.376 13.7114 77.376 12.8362C77.376 11.9719 77.5372 11.2102 77.8594 10.551C78.1854 9.89185 78.6395 9.37732 79.2217 9.00745C79.8077 8.63757 80.4925 8.45264 81.2762 8.45264C81.7523 8.45264 82.2137 8.53137 82.6605 8.68884C83.1072 8.84631 83.5082 9.09351 83.8635 9.43042C84.2187 9.76733 84.4988 10.205 84.7039 10.7433C84.909 11.278 85.0115 11.928 85.0115 12.6934V13.2756H78.3044V12.0452H83.402C83.402 11.613 83.3141 11.2303 83.1384 10.8971C82.9626 10.5602 82.7154 10.2947 82.3968 10.1006C82.0818 9.90649 81.712 9.80945 81.2872 9.80945C80.8257 9.80945 80.4229 9.92297 80.0787 10.15C79.7381 10.3734 79.4744 10.6664 79.2877 11.0289C79.1045 11.3878 79.013 11.7778 79.013 12.199V13.1603C79.013 13.7242 79.1119 14.204 79.3096 14.5995C79.511 14.995 79.7912 15.2971 80.1501 15.5059C80.509 15.7109 80.9283 15.8135 81.408 15.8135C81.7193 15.8135 82.0031 15.7695 82.2595 15.6816C82.5158 15.5901 82.7374 15.4546 82.9241 15.2751C83.1109 15.0957 83.2537 14.8741 83.3526 14.6105L84.9072 14.8906C84.7826 15.3484 84.5593 15.7494 84.237 16.0936C83.9184 16.4342 83.5174 16.6997 83.034 16.8901C82.5543 17.0769 82.0068 17.1703 81.3915 17.1703ZM93.1565 10.6224L91.6679 10.8861C91.6056 10.6957 91.5067 10.5144 91.3712 10.3423C91.2394 10.1702 91.06 10.0292 90.8329 9.91931C90.6059 9.80945 90.322 9.75452 89.9815 9.75452C89.5164 9.75452 89.1282 9.85889 88.8169 10.0676C88.5056 10.2727 88.35 10.5382 88.35 10.8641C88.35 11.1461 88.4544 11.3732 88.6631 11.5453C88.8719 11.7174 89.2088 11.8584 89.6739 11.9683L91.0142 12.2759C91.7906 12.4553 92.3692 12.7318 92.75 13.1053C93.1309 13.4789 93.3213 13.9641 93.3213 14.561C93.3213 15.0664 93.1748 15.5168 92.8819 15.9124C92.5926 16.3042 92.1879 16.6118 91.6679 16.8352C91.1515 17.0586 90.5528 17.1703 89.8716 17.1703C88.9268 17.1703 88.1559 16.9689 87.559 16.566C86.9621 16.1595 86.5959 15.5828 86.4604 14.8357L88.0479 14.594C88.1468 15.0078 88.35 15.3209 88.6576 15.5333C88.9652 15.7421 89.3662 15.8464 89.8606 15.8464C90.399 15.8464 90.8292 15.7347 91.1515 15.5114C91.4738 15.2843 91.6349 15.0078 91.6349 14.6819C91.6349 14.4182 91.536 14.1967 91.3383 14.0172C91.1442 13.8378 90.8457 13.7023 90.4429 13.6107L89.0147 13.2976C88.2273 13.1182 87.645 12.8325 87.2678 12.4407C86.8943 12.0488 86.7075 11.5526 86.7075 10.952C86.7075 10.454 86.8467 10.0182 87.125 9.64465C87.4033 9.27112 87.7879 8.97998 88.2786 8.77124C88.7693 8.55884 89.3314 8.45264 89.965 8.45264C90.8769 8.45264 91.5946 8.65039 92.1183 9.0459C92.642 9.43774 92.9881 9.96326 93.1565 10.6224ZM101.45 10.6224L99.9612 10.8861C99.8989 10.6957 99.8 10.5144 99.6645 10.3423C99.5327 10.1702 99.3533 10.0292 99.1262 9.91931C98.8992 9.80945 98.6153 9.75452 98.2748 9.75452C97.8097 9.75452 97.4215 9.85889 97.1102 10.0676C96.7989 10.2727 96.6433 10.5382 96.6433 10.8641C96.6433 11.1461 96.7477 11.3732 96.9564 11.5453C97.1652 11.7174 97.5021 11.8584 97.9672 11.9683L99.3075 12.2759C100.084 12.4553 100.662 12.7318 101.043 13.1053C101.424 13.4789 101.615 13.9641 101.615 14.561C101.615 15.0664 101.468 15.5168 101.175 15.9124C100.886 16.3042 100.481 16.6118 99.9612 16.8352C99.4448 17.0586 98.8461 17.1703 98.1649 17.1703C97.2201 17.1703 96.4492 16.9689 95.8523 16.566C95.2554 16.1595 94.8892 15.5828 94.7537 14.8357L96.3412 14.594C96.4401 15.0078 96.6433 15.3209 96.9509 15.5333C97.2585 15.7421 97.6595 15.8464 98.1539 15.8464C98.6923 15.8464 99.1226 15.7347 99.4448 15.5114C99.7671 15.2843 99.9282 15.0078 99.9282 14.6819C99.9282 14.4182 99.8293 14.1967 99.6316 14.0172C99.4375 13.8378 99.139 13.7023 98.7362 13.6107L97.308 13.2976C96.5206 13.1182 95.9383 12.8325 95.5611 12.4407C95.1876 12.0488 95.0008 11.5526 95.0008 10.952C95.0008 10.454 95.14 10.0182 95.4183 9.64465C95.6966 9.27112 96.0812 8.97998 96.5719 8.77124C97.0626 8.55884 97.6247 8.45264 98.2583 8.45264C99.1702 8.45264 99.8879 8.65039 100.412 9.0459C100.935 9.43774 101.281 9.96326 101.45 10.6224Z" fill="white"/>
</svg>
